<svg viewBox="0 0 1024.001 1066.744" xmlns="http://www.w3.org/2000/svg"><path d="M0 21.333h1024V510.06H754.038V291.296H269.964V510.06H0zm977.456 46.545H46.546v395.636H223.42V244.75h577.164v218.764h176.873zm-176.873 223.42H223.42V244.75h577.163zM223.42 244.75h577.163v800.583H223.42zm530.617 46.547H269.964v707.49h484.073zM512 375.077c87.403 0 158.256 70.854 158.256 158.256S599.403 691.588 512 691.588c-87.4 0-158.254-70.853-158.254-158.255S424.6 375.078 512 375.078zm0 269.965c61.696 0 111.71-50.014 111.71-111.71S573.696 421.625 512 421.625c-61.694 0-111.708 50.014-111.708 111.71 0 61.694 50.014 111.708 111.71 111.708zm353.746-353.745h-707.49v-46.545h707.49zm-330.472 595.78H488.73V756.752h46.544z"/></svg>