<svg width="30" height="30" viewBox="0 0 30 30" fill="none" xmlns="http://www.w3.org/2000/svg">
<path d="M24.0632 13.0611L23.7088 13.4138L24.0632 13.0611ZM13.4871 4.6721L13.1164 4.33664L13.4871 4.6721ZM6.25846 13.4069L13.8579 5.00755L13.1164 4.33664L5.51693 12.736L6.25846 13.4069ZM6 25V14.0779H5V25H6ZM10.5 26H7V27H10.5V26ZM12.5 25V20.5H11.5V25H12.5ZM13.5 19.5H16.5V18.5H13.5V19.5ZM17.5 20.5V25H18.5V20.5H17.5ZM23 26H19.5V27H23V26ZM24 14.1192V25H25V14.1192H24ZM15.3082 4.97305L23.7088 13.4138L24.4176 12.7084L16.017 4.26763L15.3082 4.97305ZM25 14.1192C25 13.5904 24.7906 13.0832 24.4176 12.7084L23.7088 13.4138C23.8953 13.6012 24 13.8548 24 14.1192H25ZM23 27C24.1046 27 25 26.1046 25 25H24C24 25.5523 23.5523 26 23 26V27ZM17.5 25C17.5 26.1046 18.3954 27 19.5 27V26C18.9477 26 18.5 25.5523 18.5 25H17.5ZM16.5 19.5C17.0523 19.5 17.5 19.9477 17.5 20.5H18.5C18.5 19.3954 17.6046 18.5 16.5 18.5V19.5ZM12.5 20.5C12.5 19.9477 12.9477 19.5 13.5 19.5V18.5C12.3954 18.5 11.5 19.3954 11.5 20.5H12.5ZM10.5 27C11.6046 27 12.5 26.1046 12.5 25H11.5C11.5 25.5523 11.0523 26 10.5 26V27ZM5 25C5 26.1046 5.89543 27 7 27V26C6.44772 26 6 25.5523 6 25H5ZM13.8579 5.00755C14.2422 4.58277 14.9041 4.56703 15.3082 4.97305L16.017 4.26763C15.2088 3.45559 13.885 3.48708 13.1164 4.33664L13.8579 5.00755ZM5.51693 12.736C5.18423 13.1038 5 13.582 5 14.0779H6C6 13.8299 6.09211 13.5908 6.25846 13.4069L5.51693 12.736Z" fill="black"/>
</svg>
